<svg width="153" height="28" viewBox="0 0 153 28" fill="none" xmlns="http://www.w3.org/2000/svg">
<path d="M26.396 2.176V2.736C26.0413 2.81067 25.6493 3.02533 25.22 3.38C24.7907 3.716 24.4453 4.31333 24.184 5.172L18.892 22.14C18.8547 22.14 18.8173 22.14 18.78 22.14C18.7427 22.14 18.7053 22.14 18.668 22.14C18.6307 22.14 18.5933 22.14 18.556 22.14C18.5187 22.14 18.4813 22.14 18.444 22.14L12.508 4.528C12.2653 3.8 11.9947 3.324 11.696 3.1C11.3973 2.876 11.1173 2.75467 10.856 2.736V2.176C11.192 2.19467 11.612 2.21333 12.116 2.232C12.62 2.25067 13.1053 2.26 13.572 2.26C14.3 2.26 14.9813 2.25067 15.616 2.232C16.2507 2.21333 16.764 2.19467 17.156 2.176V2.736C16.596 2.75467 16.148 2.81067 15.812 2.904C15.4947 2.99733 15.308 3.20267 15.252 3.52C15.2147 3.83733 15.308 4.36 15.532 5.088L19.704 17.996L19.312 18.332L23.008 6.712C23.344 5.68533 23.4933 4.892 23.456 4.332C23.4373 3.75333 23.232 3.352 22.84 3.128C22.448 2.88533 21.86 2.75467 21.076 2.736V2.176C21.6173 2.19467 22.168 2.21333 22.728 2.232C23.288 2.25067 23.8107 2.26 24.296 2.26C24.7813 2.26 25.1827 2.25067 25.5 2.232C25.8173 2.21333 26.116 2.19467 26.396 2.176ZM6.824 2.176V2.736C6.33867 2.77333 5.984 2.86667 5.76 3.016C5.55467 3.16533 5.452 3.408 5.452 3.744C5.47067 4.06133 5.57333 4.50933 5.76 5.088L10.1 18.332L9.4 19.032L13.32 6.516L13.74 7.188L9.12 22.14C9.08267 22.14 9.04533 22.14 9.008 22.14C8.97067 22.14 8.93333 22.14 8.896 22.14C8.85867 22.14 8.82133 22.14 8.784 22.14C8.74667 22.14 8.70933 22.14 8.672 22.14L2.736 4.528C2.49333 3.8 2.18533 3.324 1.812 3.1C1.43867 2.876 1.10267 2.75467 0.804 2.736V2.176C1.17733 2.19467 1.63467 2.21333 2.176 2.232C2.736 2.25067 3.27733 2.26 3.8 2.26C4.416 2.26 4.98533 2.25067 5.508 2.232C6.04933 2.21333 6.488 2.19467 6.824 2.176ZM29.6681 0.579999C30.1534 0.579999 30.5734 0.757332 30.9281 1.112C31.2827 1.46667 31.4601 1.88667 31.4601 2.372C31.4601 2.85733 31.2827 3.27733 30.9281 3.632C30.5734 3.98667 30.1534 4.164 29.6681 4.164C29.1827 4.164 28.7627 3.98667 28.4081 3.632C28.0534 3.27733 27.8761 2.85733 27.8761 2.372C27.8761 1.88667 28.0534 1.46667 28.4081 1.112C28.7627 0.757332 29.1827 0.579999 29.6681 0.579999ZM31.1241 7.272V19.396C31.1241 20.18 31.2827 20.712 31.6001 20.992C31.9361 21.272 32.4867 21.412 33.2521 21.412V22C32.9347 21.9813 32.4494 21.9627 31.7961 21.944C31.1614 21.9067 30.5174 21.888 29.8641 21.888C29.2294 21.888 28.5854 21.9067 27.9321 21.944C27.2787 21.9627 26.7934 21.9813 26.4761 22V21.412C27.2414 21.412 27.7827 21.272 28.1001 20.992C28.4361 20.712 28.6041 20.18 28.6041 19.396V10.632C28.6041 9.792 28.4547 9.176 28.1561 8.784C27.8574 8.37333 27.2974 8.168 26.4761 8.168V7.58C27.0734 7.636 27.6521 7.664 28.2121 7.664C28.7534 7.664 29.2667 7.636 29.7521 7.58C30.2561 7.50533 30.7134 7.40267 31.1241 7.272ZM39.6912 7.188C40.4379 7.188 41.0725 7.30933 41.5952 7.552C42.1179 7.79467 42.5005 8.01867 42.7432 8.224C43.3592 8.728 43.7325 8.392 43.8632 7.216H44.5072C44.4699 7.73867 44.4419 8.364 44.4232 9.092C44.4045 9.80133 44.3952 10.7627 44.3952 11.976H43.7512C43.6392 11.2853 43.4432 10.6133 43.1632 9.96C42.9019 9.30667 42.5099 8.77467 41.9872 8.364C41.4645 7.93467 40.7832 7.72 39.9432 7.72C39.2899 7.72 38.7392 7.90667 38.2912 8.28C37.8619 8.63467 37.6472 9.16667 37.6472 9.876C37.6472 10.436 37.8152 10.9213 38.1512 11.332C38.4872 11.724 38.9259 12.0973 39.4672 12.452C40.0085 12.788 40.5965 13.1613 41.2312 13.572C41.9405 14.02 42.5845 14.4773 43.1632 14.944C43.7419 15.4107 44.1992 15.924 44.5352 16.484C44.8899 17.044 45.0672 17.7067 45.0672 18.472C45.0672 19.3307 44.8432 20.0493 44.3952 20.628C43.9472 21.2067 43.3592 21.6453 42.6312 21.944C41.9219 22.2427 41.1379 22.392 40.2792 22.392C39.8685 22.392 39.4765 22.3547 39.1032 22.28C38.7485 22.224 38.4032 22.1307 38.0672 22C37.8805 21.9067 37.6845 21.7947 37.4792 21.664C37.2925 21.5333 37.1059 21.3933 36.9192 21.244C36.7325 21.0947 36.5645 21.104 36.4152 21.272C36.2659 21.4213 36.1539 21.7293 36.0792 22.196H35.4352C35.4725 21.5987 35.5005 20.8707 35.5192 20.012C35.5379 19.1533 35.5472 18.0147 35.5472 16.596H36.1912C36.3219 17.6413 36.5085 18.556 36.7512 19.34C36.9939 20.124 37.3765 20.74 37.8992 21.188C38.4219 21.6173 39.1499 21.832 40.0832 21.832C40.4565 21.832 40.8299 21.748 41.2032 21.58C41.5952 21.412 41.9219 21.132 42.1832 20.74C42.4445 20.348 42.5752 19.8253 42.5752 19.172C42.5752 18.3507 42.2765 17.6787 41.6792 17.156C41.0819 16.6333 40.3259 16.0827 39.4112 15.504C38.7392 15.0747 38.1045 14.6453 37.5072 14.216C36.9285 13.7867 36.4525 13.3013 36.0792 12.76C35.7245 12.2187 35.5472 11.5653 35.5472 10.8C35.5472 9.96 35.7339 9.27867 36.1072 8.756C36.4992 8.21467 37.0125 7.82267 37.6472 7.58C38.2819 7.31867 38.9632 7.188 39.6912 7.188ZM59.9426 0.0479989V18.948C59.9426 19.788 60.092 20.4133 60.3906 20.824C60.708 21.216 61.268 21.412 62.0706 21.412V22C61.492 21.944 60.9133 21.916 60.3346 21.916C59.7933 21.916 59.2706 21.944 58.7666 22C58.2813 22.056 57.8333 22.1587 57.4226 22.308V3.408C57.4226 2.568 57.2733 1.952 56.9746 1.56C56.676 1.14933 56.116 0.943999 55.2946 0.943999V0.355998C55.892 0.411999 56.4706 0.439999 57.0306 0.439999C57.572 0.439999 58.0853 0.411999 58.5706 0.355998C59.0746 0.281333 59.532 0.178666 59.9426 0.0479989ZM54.0626 7.188C54.884 7.188 55.6493 7.384 56.3586 7.776C57.0866 8.168 57.572 8.84 57.8146 9.792L57.4506 10.072C57.1893 9.288 56.7786 8.71867 56.2186 8.364C55.6773 8.00933 55.0333 7.832 54.2866 7.832C53.1853 7.832 52.2613 8.40133 51.5146 9.54C50.7866 10.6787 50.432 12.4333 50.4506 14.804C50.4506 16.316 50.5906 17.576 50.8706 18.584C51.1693 19.5733 51.5986 20.32 52.1586 20.824C52.7373 21.3093 53.4373 21.552 54.2586 21.552C55.0426 21.552 55.752 21.216 56.3866 20.544C57.0213 19.872 57.404 18.8827 57.5346 17.576L57.8706 17.968C57.7213 19.3867 57.264 20.4787 56.4986 21.244C55.752 22.0093 54.7346 22.392 53.4466 22.392C52.2893 22.392 51.272 22.112 50.3946 21.552C49.536 20.992 48.8733 20.152 48.4066 19.032C47.9586 17.912 47.7346 16.5027 47.7346 14.804C47.7346 13.1053 48.024 11.696 48.6026 10.576C49.2 9.43733 49.9746 8.588 50.9266 8.028C51.8973 7.468 52.9426 7.188 54.0626 7.188ZM70.3322 7.188C71.5268 7.188 72.6002 7.44933 73.5522 7.972C74.5042 8.49467 75.2602 9.316 75.8202 10.436C76.3988 11.556 76.6882 13.012 76.6882 14.804C76.6882 16.596 76.3988 18.052 75.8202 19.172C75.2602 20.2733 74.5042 21.0853 73.5522 21.608C72.6002 22.1307 71.5268 22.392 70.3322 22.392C69.1562 22.392 68.0828 22.1307 67.1122 21.608C66.1602 21.0853 65.3948 20.2733 64.8162 19.172C64.2562 18.052 63.9762 16.596 63.9762 14.804C63.9762 13.012 64.2562 11.556 64.8162 10.436C65.3948 9.316 66.1602 8.49467 67.1122 7.972C68.0828 7.44933 69.1562 7.188 70.3322 7.188ZM70.3322 7.748C69.2682 7.748 68.3908 8.29867 67.7002 9.4C67.0282 10.5013 66.6922 12.3027 66.6922 14.804C66.6922 17.3053 67.0282 19.1067 67.7002 20.208C68.3908 21.2907 69.2682 21.832 70.3322 21.832C71.3962 21.832 72.2642 21.2907 72.9362 20.208C73.6268 19.1067 73.9722 17.3053 73.9722 14.804C73.9722 12.3027 73.6268 10.5013 72.9362 9.4C72.2642 8.29867 71.3962 7.748 70.3322 7.748ZM88.052 7.188C88.7053 7.188 89.2747 7.28133 89.76 7.468C90.2453 7.65467 90.6467 7.916 90.964 8.252C91.3187 8.62533 91.5613 9.11067 91.692 9.708C91.8227 10.3053 91.888 11.0427 91.888 11.92V19.396C91.888 20.18 92.0467 20.712 92.364 20.992C92.7 21.272 93.2507 21.412 94.016 21.412V22C93.6987 21.9813 93.2133 21.9627 92.56 21.944C91.9067 21.9067 91.272 21.888 90.656 21.888C90.04 21.888 89.4333 21.9067 88.836 21.944C88.2573 21.9627 87.8187 21.9813 87.52 22V21.412C88.192 21.412 88.668 21.272 88.948 20.992C89.228 20.712 89.368 20.18 89.368 19.396V11.304C89.368 10.7253 89.3307 10.1933 89.256 9.708C89.1813 9.22267 88.9947 8.83067 88.696 8.532C88.3973 8.23333 87.912 8.084 87.24 8.084C86.512 8.084 85.8587 8.308 85.28 8.756C84.72 9.204 84.272 9.82 83.936 10.604C83.6187 11.3693 83.46 12.228 83.46 13.18V19.396C83.46 20.18 83.6 20.712 83.88 20.992C84.16 21.272 84.636 21.412 85.308 21.412V22C85.0093 21.9813 84.5613 21.9627 83.964 21.944C83.3853 21.9067 82.788 21.888 82.172 21.888C81.556 21.888 80.9213 21.9067 80.268 21.944C79.6147 21.9627 79.1293 21.9813 78.812 22V21.412C79.5773 21.412 80.1187 21.272 80.436 20.992C80.772 20.712 80.94 20.18 80.94 19.396V10.632C80.94 9.792 80.7907 9.176 80.492 8.784C80.1933 8.37333 79.6333 8.168 78.812 8.168V7.58C79.4093 7.636 79.988 7.664 80.548 7.664C81.0893 7.664 81.6027 7.636 82.088 7.58C82.592 7.50533 83.0493 7.40267 83.46 7.272V10.576C83.9453 9.36267 84.608 8.49467 85.448 7.972C86.288 7.44933 87.156 7.188 88.052 7.188ZM96.48 7.188C97.1333 7.188 97.7027 7.28133 98.188 7.468C98.6733 7.65467 99.0747 7.916 99.392 8.252C99.7467 8.62533 99.9893 9.11067 100.12 9.708C100.251 10.3053 100.316 11.0427 100.316 11.92V19.396C100.316 20.18 100.475 20.712 100.792 20.992C101.128 21.272 101.679 21.412 102.444 21.412V22C102.127 21.9813 101.641 21.9627 100.988 21.944C100.335 21.9067 99.7 21.888 99.084 21.888C98.468 21.888 97.8613 21.9067 97.264 21.944C96.6853 21.9627 96.2467 21.9813 95.948 22V21.412C96.62 21.412 97.096 21.272 97.376 20.992C97.656 20.712 97.796 20.18 97.796 19.396V11.304C97.796 10.7253 97.7587 10.1933 97.684 9.708C97.6093 9.22267 97.4227 8.83067 97.124 8.532C96.8253 8.23333 96.34 8.084 95.668 8.084C94.94 8.084 94.2867 8.308 93.708 8.756C93.148 9.204 92.7 9.81067 92.364 10.576C92.0467 11.3413 91.888 12.2 91.888 13.152L91.804 10.548C92.308 9.26 92.9893 8.38267 93.848 7.916C94.7067 7.43067 95.584 7.188 96.48 7.188ZM126.83 2.176V2.736C126.475 2.81067 126.083 3.02533 125.654 3.38C125.224 3.716 124.879 4.31333 124.618 5.172L119.326 22.14C119.288 22.14 119.251 22.14 119.214 22.14C119.176 22.14 119.139 22.14 119.102 22.14C119.064 22.14 119.027 22.14 118.99 22.14C118.952 22.14 118.915 22.14 118.878 22.14L112.942 4.528C112.699 3.8 112.428 3.324 112.13 3.1C111.831 2.876 111.551 2.75467 111.29 2.736V2.176C111.626 2.19467 112.046 2.21333 112.55 2.232C113.054 2.25067 113.539 2.26 114.006 2.26C114.734 2.26 115.415 2.25067 116.05 2.232C116.684 2.21333 117.198 2.19467 117.59 2.176V2.736C117.03 2.75467 116.582 2.81067 116.246 2.904C115.928 2.99733 115.742 3.20267 115.686 3.52C115.648 3.83733 115.742 4.36 115.966 5.088L120.138 17.996L119.746 18.332L123.442 6.712C123.778 5.68533 123.927 4.892 123.89 4.332C123.871 3.75333 123.666 3.352 123.274 3.128C122.882 2.88533 122.294 2.75467 121.51 2.736V2.176C122.051 2.19467 122.602 2.21333 123.162 2.232C123.722 2.25067 124.244 2.26 124.73 2.26C125.215 2.26 125.616 2.25067 125.934 2.232C126.251 2.21333 126.55 2.19467 126.83 2.176ZM107.258 2.176V2.736C106.772 2.77333 106.418 2.86667 106.194 3.016C105.988 3.16533 105.886 3.408 105.886 3.744C105.904 4.06133 106.007 4.50933 106.194 5.088L110.534 18.332L109.834 19.032L113.754 6.516L114.174 7.188L109.554 22.14C109.516 22.14 109.479 22.14 109.442 22.14C109.404 22.14 109.367 22.14 109.33 22.14C109.292 22.14 109.255 22.14 109.218 22.14C109.18 22.14 109.143 22.14 109.106 22.14L103.17 4.528C102.927 3.8 102.619 3.324 102.246 3.1C101.872 2.876 101.536 2.75467 101.238 2.736V2.176C101.611 2.19467 102.068 2.21333 102.61 2.232C103.17 2.25067 103.711 2.26 104.234 2.26C104.85 2.26 105.419 2.25067 105.942 2.232C106.483 2.21333 106.922 2.19467 107.258 2.176ZM130.175 22.196C129.409 22.196 128.747 22.056 128.187 21.776C127.627 21.4773 127.197 21.0667 126.899 20.544C126.619 20.0213 126.479 19.4147 126.479 18.724C126.479 17.9027 126.665 17.2307 127.039 16.708C127.431 16.1853 127.925 15.7653 128.523 15.448C129.12 15.1307 129.745 14.8693 130.399 14.664C131.071 14.44 131.705 14.2347 132.303 14.048C132.9 13.8427 133.385 13.6093 133.759 13.348C134.151 13.0867 134.347 12.7413 134.347 12.312V10.576C134.347 9.792 134.225 9.19467 133.983 8.784C133.759 8.37333 133.451 8.10267 133.059 7.972C132.667 7.82267 132.228 7.748 131.743 7.748C131.276 7.748 130.772 7.81333 130.231 7.944C129.708 8.07467 129.288 8.34533 128.971 8.756C129.325 8.83067 129.633 9.01733 129.895 9.316C130.156 9.61467 130.287 9.99733 130.287 10.464C130.287 10.9307 130.137 11.304 129.839 11.584C129.54 11.8453 129.157 11.976 128.691 11.976C128.149 11.976 127.748 11.808 127.487 11.472C127.244 11.1173 127.123 10.7253 127.123 10.296C127.123 9.81067 127.244 9.41867 127.487 9.12C127.729 8.82133 128.037 8.54133 128.411 8.28C128.84 7.98133 129.391 7.72933 130.063 7.524C130.753 7.3 131.528 7.188 132.387 7.188C133.152 7.188 133.805 7.28133 134.347 7.468C134.888 7.636 135.336 7.888 135.691 8.224C136.176 8.672 136.493 9.22267 136.643 9.876C136.792 10.5107 136.867 11.276 136.867 12.172V19.956C136.867 20.4227 136.932 20.7587 137.063 20.964C137.212 21.1693 137.436 21.272 137.735 21.272C137.94 21.272 138.136 21.2253 138.323 21.132C138.509 21.0387 138.733 20.8893 138.995 20.684L139.303 21.16C138.911 21.4587 138.537 21.7107 138.183 21.916C137.828 22.1027 137.352 22.196 136.755 22.196C136.213 22.196 135.765 22.1027 135.411 21.916C135.056 21.7293 134.785 21.4587 134.599 21.104C134.431 20.7307 134.347 20.264 134.347 19.704C133.843 20.544 133.236 21.1693 132.527 21.58C131.836 21.9907 131.052 22.196 130.175 22.196ZM131.183 21.076C131.799 21.076 132.368 20.8987 132.891 20.544C133.432 20.1893 133.917 19.6573 134.347 18.948V13.46C134.123 13.7773 133.796 14.048 133.367 14.272C132.937 14.4773 132.471 14.692 131.967 14.916C131.463 15.1213 130.977 15.3733 130.511 15.672C130.063 15.952 129.689 16.3253 129.391 16.792C129.092 17.2587 128.943 17.8653 128.943 18.612C128.943 19.3587 129.139 19.956 129.531 20.404C129.941 20.852 130.492 21.076 131.183 21.076ZM153 7.58V8.14C152.645 8.17733 152.319 8.336 152.02 8.616C151.721 8.896 151.441 9.39067 151.18 10.1L146.588 22.14H146.112L140.96 9.736C140.605 9.008 140.251 8.56933 139.896 8.42C139.56 8.252 139.28 8.168 139.056 8.168V7.58C139.467 7.636 139.896 7.68267 140.344 7.72C140.792 7.73867 141.277 7.748 141.8 7.748C142.379 7.748 142.985 7.72933 143.62 7.692C144.273 7.65467 144.88 7.61733 145.44 7.58V8.168C144.973 8.168 144.553 8.20533 144.18 8.28C143.825 8.336 143.601 8.532 143.508 8.868C143.415 9.18533 143.527 9.736 143.844 10.52L147.288 19.06L147.12 19.116L150.312 10.772C150.555 10.156 150.648 9.67067 150.592 9.316C150.555 8.94267 150.368 8.66267 150.032 8.476C149.696 8.28933 149.192 8.17733 148.52 8.14V7.58C148.856 7.59867 149.145 7.61733 149.388 7.636C149.631 7.636 149.864 7.64533 150.088 7.664C150.331 7.664 150.592 7.664 150.872 7.664C151.301 7.664 151.684 7.65467 152.02 7.636C152.375 7.61733 152.701 7.59867 153 7.58ZM146.588 22.14L145.636 24.576C145.449 25.0427 145.253 25.4347 145.048 25.752C144.861 26.0693 144.656 26.3307 144.432 26.536C144.133 26.816 143.779 27.0027 143.368 27.096C142.957 27.208 142.584 27.264 142.248 27.264C141.893 27.264 141.567 27.1987 141.268 27.068C140.988 26.9373 140.764 26.7413 140.596 26.48C140.428 26.2373 140.344 25.9387 140.344 25.584C140.344 25.136 140.475 24.772 140.736 24.492C140.997 24.2307 141.361 24.1 141.828 24.1C142.22 24.1 142.556 24.212 142.836 24.436C143.116 24.66 143.256 24.9867 143.256 25.416C143.256 25.7333 143.181 25.9947 143.032 26.2C142.883 26.4053 142.705 26.564 142.5 26.676C142.537 26.6947 142.565 26.704 142.584 26.704C142.621 26.704 142.649 26.704 142.668 26.704C143.172 26.704 143.62 26.5267 144.012 26.172C144.404 25.836 144.749 25.2853 145.048 24.52L146.056 21.916L146.588 22.14Z" fill="white"/>
</svg>
